<svg xmlns="http://www.w3.org/2000/svg" viewBox="0 0 150.06 149.93"><defs><style>.cls-1{fill:#0f120f;}.cls-2{fill:#181915;}</style></defs><title>logo4</title><g id="Layer_2" data-name="Layer 2"><g id="Layer_1-2" data-name="Layer 1"><path class="cls-1" d="M37.07,128.68c-4.12-.53-8.73-1.18-13.36-1.72-2.18-.26-3.51-1.62-4.9-3.12-26-28.15-24.92-72,2.64-100.85C48.79-5.64,94-7.8,123.47,18a10.87,10.87,0,0,1,3.86,7.14c2.45,16.44-.8,31.95-8.27,46.42-14.94,29-37.34,49-70.05,55.76C45.28,128.12,41.41,128.22,37.07,128.68Z"/><path class="cls-2" d="M44.88,143.06c28.58,3.06,51.78-7.86,71-27.79C135,95.52,145.31,72.21,141.79,44c11.43,15.61,12,47.23-4.57,71.7C116,146.91,77.53,158.65,44.88,143.06Z"/></g></g></svg>