<svg xmlns="http://www.w3.org/2000/svg" viewBox="0 0 23.13 35.98"><defs><style>.cls-1{fill:#fff;}</style></defs><title>LogoW</title><g id="Layer_2" data-name="Layer 2"><g id="Layer_1-2" data-name="Layer 1"><path class="cls-1" d="M5.72,19.08c2.66,2.59,5.69,3.65,8.34,5.3,1.23.77,3.1,1.44,2.25,3.26-1,2-2.58.69-3.81,0-3.52-1.9-7-3.86-10.45-5.85C-.56,20.33-.75,18.6,1.89,17c3.68-2.26,7.44-4.39,11.19-6.55,1-.6,2.26-1.14,3.11.1,1.11,1.61-.3,2.39-1.41,3.07C11.85,15.43,8.88,17.18,5.72,19.08Z"/><ellipse class="cls-1" cx="22.7" cy="17.99" rx="0.61" ry="25.44"/></g></g></svg>