<svg xmlns="http://www.w3.org/2000/svg" viewBox="0 0 307.62 384.19"><defs><style>.cls-1{fill:#b2292e;fill-rule:evenodd;}.cls-2{fill:none;stroke:#b2292e;stroke-width:0.02px;}.cls-3{fill:#161519;}</style></defs><title>icbc-logo</title><g id="Layer_2" data-name="Layer 2"><g id="Layer_1-2" data-name="Layer 1"><path class="cls-1" d="M149.42,74V55.46h-60v55.45h36.78v18.48H89.39v55.44h60V166.36H107.86V147.89h36.93V92.41H107.86V74ZM33.56,120.24A120.25,120.25,0,1,1,153.81,240.48,120.2,120.2,0,0,1,33.56,120.24m18.62,0A101.62,101.62,0,1,1,153.81,221.85,101.66,101.66,0,0,1,52.18,120.24m106.54,46.15v18.47h59.93V129.45H181.8V111h36.85V55.49H158.72V74h41.44V92.5H163.24v55.43h36.92v18.46Z"/><path class="cls-2" d="M149.42,74V55.46h-60v55.45h36.78v18.48H89.39v55.44h60V166.36H107.86V147.89h36.93V92.41H107.86V74ZM33.56,120.24A120.25,120.25,0,1,1,153.81,240.48,120.2,120.2,0,0,1,33.56,120.24Zm18.62,0A101.62,101.62,0,1,1,153.81,221.85,101.66,101.66,0,0,1,52.18,120.24Zm106.54,46.15v18.47h59.93V129.45H181.8V111h36.85V55.49H158.72V74h41.44V92.5H163.24v55.43h36.92v18.46Z"/><path class="cls-3" d="M183.81,384.19c11.45,0,20.09-2.77,25.68-8.22,5.74-5.62,6.93-12.84,6.93-17.92,0-11.13-4.65-18.85-13.88-23l-.4-.17.39-.2c4.17-2.17,9.67-6.58,9.67-19.76a24.52,24.52,0,0,0-7.77-18.35c-5.48-5.06-13.47-7.72-23.11-7.72l-49.91,0v95.3ZM149.54,326.3V306.4h30.24c5.32,0,14.24,0,14.24,10.48,0,3.84-1.67,6.59-5,8.1-3,1.38-6.67,1.54-9.2,1.54H149.54Zm0,17.71v-.2h33c3,0,7.35.48,10.83,2.74a10.48,10.48,0,0,1,4.9,9.32c0,3.25-.9,5.77-2.63,7.52-3.24,3.24-8.84,3.23-12.92,3.23H149.43v-.21Z"/><rect class="cls-3" y="288.89" width="19.01" height="95.3"/><path class="cls-3" d="M34.45,335.73c0,9.22,1.56,16.82,4.78,23.25a41.68,41.68,0,0,0,11.91,14.21c8.51,6.76,20.47,10.2,35.57,10.2h26v-18H88.16c-13.66,0-23.58-3.39-29.46-10.06-4.17-4.76-6.32-11.13-6.37-19-.07-8.43,2.3-15.13,7.05-19.92,5.93-6,15.62-9,28.78-9h24.57V289.55H87.63a80.66,80.66,0,0,0-21.69,2.56A40.12,40.12,0,0,0,50.55,300c-6,5.06-16.1,16.43-16.1,35.76"/><path class="cls-3" d="M227.91,335.73c0,9.19,1.6,17.31,4.78,24.1a42.13,42.13,0,0,0,11.92,15.07c8,6.35,19.29,9.29,35.57,9.29h27.44v-18h-26c-13.64,0-23.56-3.53-29.48-10.48-4.16-4.9-6.29-11.43-6.37-19.41-.08-8.67,2.39-15.58,7.3-20.54,6-6,15.58-9.07,28.55-9.07h26V288.89H281.09a80.18,80.18,0,0,0-21.68,2.56A39.73,39.73,0,0,0,244,299.3c-4.84,4.06-16.1,15.78-16.1,36.43"/></g></g></svg>