<?xml version="1.0" encoding="UTF-8"?>
<svg xmlns="http://www.w3.org/2000/svg" xmlns:xlink="http://www.w3.org/1999/xlink" width="385.2pt" height="385.3pt" viewBox="0 0 385.2 385.3" version="1.1">
<defs>
<clipPath id="clip1">
  <path d="M 0 0 L 385.199219 0 L 385.199219 385.300781 L 0 385.300781 Z M 0 0 "/>
</clipPath>
</defs>
<g id="surface1">
<g clip-path="url(#clip1)" clip-rule="nonzero">
<path style=" stroke:none;fill-rule:evenodd;fill:rgb(17.651367%,19.604492%,55.664063%);fill-opacity:1;" d="M 74.140625 -0.046875 L 311.140625 -0.046875 C 351.921875 -0.046875 385.277344 33.3125 385.277344 74.089844 L 385.277344 311.089844 C 385.277344 351.867188 351.921875 385.226563 311.140625 385.226563 L 74.140625 385.226563 C 33.363281 385.226563 0.00390625 351.867188 0.00390625 311.089844 L 0.00390625 74.089844 C 0.00390625 33.3125 33.363281 -0.046875 74.140625 -0.046875 Z M 74.140625 -0.046875 "/>
</g>
<path style=" stroke:none;fill-rule:evenodd;fill:rgb(100%,100%,0%);fill-opacity:1;" d="M 35.523438 314.40625 L 68.167969 314.40625 L 68.167969 173.417969 L 35.523438 173.417969 Z M 35.523438 314.40625 "/>
<path style=" stroke:none;fill-rule:evenodd;fill:rgb(100%,100%,0%);fill-opacity:1;" d="M 92.40625 230.753906 L 92.40625 291.660156 C 92.40625 307.828125 99.628906 315.914063 116.949219 315.914063 C 122.289063 315.914063 128.929688 315.347656 136.871094 314.21875 L 136.871094 293.167969 C 134.398438 293.167969 132.710938 293.195313 131.796875 293.257813 C 130.882813 293.324219 129.910156 293.5 128.863281 293.542969 C 126.652344 293.625 123.519531 293.007813 122.347656 291.941406 C 121.179688 290.878906 120.589844 288.96875 120.589844 286.210938 L 120.589844 230.753906 L 136.871094 230.753906 L 136.871094 209.136719 L 120.589844 209.136719 L 120.589844 174.75 L 92.40625 174.75 L 92.40625 209.136719 L 78.664063 209.136719 L 78.664063 230.753906 Z M 92.40625 230.753906 "/>
<path style=" stroke:none;fill-rule:evenodd;fill:rgb(100%,100%,0%);fill-opacity:1;" d="M 148.28125 244.386719 L 175.371094 244.386719 C 174.410156 236.792969 181.945313 231.089844 192.277344 231.015625 C 210.242188 230.886719 216.277344 247.316406 198.660156 249.613281 C 166.6875 252.121094 145.449219 261.832031 145.589844 285.890625 C 145.441406 306.65625 158.464844 316.71875 185.351563 315.515625 C 192.753906 315.453125 200.980469 310.875 210.066406 301.734375 C 211.175781 305.535156 209.828125 311.871094 213.394531 313.140625 L 236.679688 313.140625 L 236.679688 236.78125 C 234.277344 219.707031 223.734375 207.585938 192.164063 208.265625 C 163.839844 209.433594 149.988281 222.089844 148.28125 244.386719 Z M 172.664063 283.113281 C 176.566406 265.957031 201.179688 271.019531 208.785156 263.785156 C 210.984375 283.769531 204.050781 296.960938 185.496094 296.898438 C 177.273438 296.867188 170.964844 290.585938 172.664063 283.113281 Z M 172.664063 283.113281 "/>
<path style=" stroke:none;fill-rule:evenodd;fill:rgb(100%,100%,0%);fill-opacity:1;" d="M 326.585938 315.359375 L 326.585938 299.800781 C 322.78125 305.34375 317.816406 309.75 311.648438 313.054688 C 305.476563 316.324219 298.976563 317.960938 292.144531 317.960938 C 285.140625 317.960938 278.878906 316.425781 273.339844 313.355469 C 267.769531 310.285156 263.769531 305.945313 261.300781 300.402344 C 258.804688 294.824219 257.570313 287.148438 257.570313 277.332031 L 257.570313 211.398438 L 284.972656 211.398438 L 284.972656 259.273438 C 284.972656 273.921875 285.492188 277.125 286.507813 280.429688 C 287.519531 283.730469 289.359375 286.359375 292.046875 288.277344 C 294.71875 290.191406 298.109375 291.183594 302.242188 291.183594 C 306.945313 291.183594 311.148438 289.875 314.878906 287.308594 C 318.609375 284.742188 319.714844 281.53125 321.078125 277.695313 C 322.4375 273.859375 323.144531 270.257813 323.144531 255.332031 L 323.144531 211.398438 L 351.988281 211.398438 L 351.988281 315.359375 Z M 291.007813 197.980469 L 303.34375 175.707031 L 331.414063 175.707031 L 312.648438 197.980469 Z M 291.007813 197.980469 "/>
</g>
</svg>
