<svg xmlns="http://www.w3.org/2000/svg" viewBox="0 0 138.8 96.1"><defs><style>.cls-1{fill:#253e8b;}.cls-2{fill:#00aeef;}.cls-3{fill:#fff;}</style></defs><title>mercadopago-logo</title><g id="Layer_2" data-name="Layer 2"><g id="Layer_1-2" data-name="Layer 1"><path class="cls-1" d="M138.8,45.4c0-25-31.1-45.4-69.4-45.4S0,20.4,0,45.4v2.7c0,26.5,27.2,48,69.4,48,42.5,0,69.4-21.5,69.4-48V45.4"/><path class="cls-2" d="M136.2,45.4c0,23.6-29.9,42.7-66.7,42.7S2.7,69,2.7,45.4,32.6,2.7,69.4,2.7s66.8,19.1,66.8,42.7"/><path class="cls-3" d="M47.3,31.9c0,.1-.7.8-.3,1.3,1.1,1.3,4.3,2.1,7.6,1.4,2-.4,4.5-2.4,6.9-4.4,2.6-2.1,5.2-4.2,7.9-5a8.86,8.86,0,0,1,5.8-.1,16.83,16.83,0,0,1,5.2,3c4.6,3.4,22.9,19.5,26.1,22.2a161.59,161.59,0,0,1,29.3-9.5c-1.3-8.2-6.4-15.8-13.9-21.9-10.6,4.4-23.5,6.8-36.2.6-.1,0-6.9-3.3-13.7-3.1-10.1.2-14.4,4.5-19,9.1l-5.7,6.4"/><path class="cls-3" d="M105.7,52.1c-.2-.2-21.6-18.9-26.4-22.5-2.8-2.1-4.4-2.6-6-2.8a6.55,6.55,0,0,0-2.8.3c-2.3.6-5.2,2.6-7.8,4.7s-5.3,4.2-7.6,4.7a12.29,12.29,0,0,1-8.4-1.3,4,4,0,0,1-1.4-1.5,2.48,2.48,0,0,1,.7-2.8l5.9-6.4,2.1-2a52.28,52.28,0,0,0-5.4,1.2,22,22,0,0,1-6.3,1.2c-2.1-.2-4.3-.6-6.4-1a104.49,104.49,0,0,1-17-6.1C10.5,24,4.9,31.9,3.3,40.4c1.2.3,3.2.9,4,1.1,19,4.2,24.9,8.6,26,9.5a6.32,6.32,0,0,1,8.9-.5,5.24,5.24,0,0,1,1,1.1A7.49,7.49,0,0,1,47.7,50a8.57,8.57,0,0,1,2.7.5,6.22,6.22,0,0,1,3.7,3.4,5.83,5.83,0,0,1,2.6-.6,7.11,7.11,0,0,1,3.2.7c3.5,1.5,4,4.9,3.7,7.5h.8A7.49,7.49,0,0,1,71.9,69a7.68,7.68,0,0,1-.9,3.6c1.1.6,4,2.1,6.5,1.8,2-.2,2.8-.9,3.1-1.3s.4-.6.2-.8l-5.4-6s-.9-.8-.6-1.2.8.2,1.2.5c2.7,2.3,6.1,5.7,6.1,5.7s.3.5,1.5.7a5.26,5.26,0,0,0,4.2-1,4.3,4.3,0,0,0,.9-1h-.1a2.72,2.72,0,0,0-.2-3.5l-6.3-7s-.9-.8-.6-1.2.8.1,1.2.5c2,1.7,4.8,4.5,7.5,7.1.5.4,2.9,1.8,6-.2a4.25,4.25,0,0,0,2.2-3.9,4.66,4.66,0,0,0-1.3-2.5l-8.5-8.6s-.9-.8-.6-1.2.8.2,1.2.5c2.7,2.3,10.1,9,10.1,9a5.31,5.31,0,0,0,5.8-.1,3.84,3.84,0,0,0,1.9-3.1,4,4,0,0,0-1.3-3.7"/><path class="cls-3" d="M64.3,63c-1.3,0-2.8.8-3,.7s.1-.6.2-.9,1.9-5.5-2.4-7.4a5,5,0,0,0-5.9.9c-.2.2-.3.2-.3-.1a4.85,4.85,0,0,0-3.3-4.4,6.41,6.41,0,0,0-7.2,2.6,4.6,4.6,0,1,0-3.9,5.2A4.52,4.52,0,0,0,41,58.4v.2a6.16,6.16,0,0,0,3.8,7,4.59,4.59,0,0,0,4.5-.7c.4-.3.4-.2.4.2-.2,1.1,0,3.4,3.3,4.7a4.3,4.3,0,0,0,4.9-.9c.4-.4.5-.3.5.3A5.86,5.86,0,1,0,64.3,63"/><path class="cls-1" d="M64.3,74.3a5.4,5.4,0,0,1-5.4-5.2c0-.2,0-.9-.6-.9a1.49,1.49,0,0,0-.7.3A3.73,3.73,0,0,1,55,69.7a3.92,3.92,0,0,1-1.8-.4c-3.1-1.2-3.2-3.4-3-4.2a.88.88,0,0,0-.1-.7l-.1-.1h-.2a.76.76,0,0,0-.5.2,4.32,4.32,0,0,1-2.6.9,4.53,4.53,0,0,1-1.6-.3,5.56,5.56,0,0,1-3.5-6.6c0-.2,0-.4-.2-.5l-.4-.2-.3.2a4.24,4.24,0,1,1,.1-6,4.42,4.42,0,0,1,1.1,2.4l.1,1.1.6-1a6.46,6.46,0,0,1,4.9-2.7,5.66,5.66,0,0,1,1.8.3,4.26,4.26,0,0,1,3,4,.53.53,0,0,0,1,.3,4.39,4.39,0,0,1,3.1-1.3,5.93,5.93,0,0,1,2.3.5c4,1.7,2.2,6.8,2.2,6.8-.3.8-.4,1.2,0,1.4l.2.1h.1a2.35,2.35,0,0,0,.8-.2,8,8,0,0,1,2.1-.5h0a5.44,5.44,0,0,1,5.4,5.4,5.18,5.18,0,0,1-5.2,5.7Zm42.3-24.5c-6.6-5.7-21.8-19-25.9-22.1a18.1,18.1,0,0,0-5.4-3.1,7.83,7.83,0,0,0-2.6-.4,9.19,9.19,0,0,0-3.3.6c-2.7.9-5.3,3-7.9,5l-.1.1c-2.4,1.9-4.9,3.9-6.7,4.3a10.68,10.68,0,0,1-2.5.3c-2.1,0-4-.6-4.7-1.5-.1-.2,0-.4.2-.7h0l5.8-6.2c4.5-4.5,8.8-8.8,18.7-9h.5a34.42,34.42,0,0,1,13,3.1,40.08,40.08,0,0,0,17.7,4.2,46.46,46.46,0,0,0,19.4-4.6c-.8-.6-1.5-1.2-2.3-1.9a43.12,43.12,0,0,1-17,3.9,36.51,36.51,0,0,1-16.5-4,36,36,0,0,0-14.1-3.3H72c-8.3.2-13,3.1-16.1,5.7a27.59,27.59,0,0,0-8,1.5,21.34,21.34,0,0,1-5.7,1.1c-.7,0-2-.1-2.2-.1-2-.1-12.2-2.6-20.4-5.6l-2.4,1.8c8.5,3.5,18.8,6.2,22.1,6.4a26.35,26.35,0,0,0,2.8.2,23.35,23.35,0,0,0,6.4-1.2c1.2-.3,2.6-.7,4-1l-1.1,1.1-5.9,6.4a3,3,0,0,0-.8,3.2,3.75,3.75,0,0,0,1.6,1.7,12.46,12.46,0,0,0,6.2,1.6A10.68,10.68,0,0,0,55,37c2.5-.6,5.1-2.6,7.8-4.8,2.2-1.7,5.3-3.9,7.7-4.6a7.61,7.61,0,0,1,2.1-.3h.6c1.6.2,3.1.7,5.8,2.8,4.8,3.6,26.2,22.3,26.4,22.5a4.16,4.16,0,0,1,1.3,3.1,3.34,3.34,0,0,1-1.7,2.7,4.68,4.68,0,0,1-2.8.9,4.51,4.51,0,0,1-2.5-.7c-.1-.1-7.4-6.8-10.1-9a2.09,2.09,0,0,0-1.3-.7.86.86,0,0,0-.6.3c-.4.5.1,1.2.6,1.7l8.6,8.6a4,4,0,0,1,1.2,2.3,3.66,3.66,0,0,1-2,3.5,5.39,5.39,0,0,1-3,1,4.81,4.81,0,0,1-2.4-.7l-1.2-1.2c-2.2-2.2-4.6-4.5-6.2-5.9a2.73,2.73,0,0,0-1.3-.7.76.76,0,0,0-.5.2c-.2.2-.3.6.2,1.2.1.2.3.3.4.5l6.2,7a2.4,2.4,0,0,1,.1,3l-.2.3-.6.6a5,5,0,0,1-3.1,1,2,2,0,0,1-.8-.1,1.66,1.66,0,0,1-1.2-.5l-.1-.1c-.3-.3-3.5-3.6-6.1-5.7a2.09,2.09,0,0,0-1.3-.7,1.42,1.42,0,0,0-.6.2c-.5.6.3,1.4.6,1.7l5.3,5.9a.76.76,0,0,1-.2.4c-.2.3-.8.9-2.8,1.2h-.7a10.91,10.91,0,0,1-5.2-1.6,7.92,7.92,0,0,0-3.8-10.6,8.08,8.08,0,0,0-3.4-.8H64c.1-2-.1-5.8-4-7.5a7.54,7.54,0,0,0-3.3-.7,6.37,6.37,0,0,0-2.4.4,6.39,6.39,0,0,0-3.9-3.3,9.18,9.18,0,0,0-2.8-.5,8,8,0,0,0-4.5,1.4,6.69,6.69,0,0,0-9.4-1.1c-.2.2-.4.3-.6.5-1.7-1.3-8.2-5.4-25.8-9.4-.8-.2-2.8-.8-4-1.1a29.31,29.31,0,0,0-.5,2.9l3.9.9c18,4,23.9,8.1,24.9,8.9a7.51,7.51,0,0,0-.5,2.6,6.85,6.85,0,0,0,6.7,6.8,4.87,4.87,0,0,0,1.2-.1,8,8,0,0,0,5.1,5.9,6.87,6.87,0,0,0,2.4.5,7.72,7.72,0,0,0,1.5-.2,7.56,7.56,0,0,0,6.8,4.4,5.22,5.22,0,0,0,2.1-.4,8,8,0,0,0,10.4,4.3,6.77,6.77,0,0,0,2.6-1.8,14.51,14.51,0,0,0,6.7,2,3.4,3.4,0,0,0,1-.1c2.7-.3,4-1.4,4.6-2.2.1-.1.2-.3.3-.4a7.8,7.8,0,0,0,2.2.3A6.72,6.72,0,0,0,89,72.3a6.51,6.51,0,0,0,2.6-3.7h0c.5.1,1,.1,1.5.2a8.23,8.23,0,0,0,4.5-1.4,6.45,6.45,0,0,0,3.2-5.7,7.72,7.72,0,0,0,1.5.2,8,8,0,0,0,4.2-1.3,5.89,5.89,0,0,0,2.9-4.7,6.32,6.32,0,0,0-.9-3.8,171,171,0,0,1,27.7-8.7,28.86,28.86,0,0,0-.4-2.9,152.85,152.85,0,0,0-29.2,9.3"/></g></g></svg>