<?xml version="1.0" encoding="utf-8"?>
<!-- Generator: Adobe Illustrator 22.0.0, SVG Export Plug-In . SVG Version: 6.00 Build 0)  -->
<svg version="1.1" id="Layer_1" xmlns="http://www.w3.org/2000/svg" xmlns:xlink="http://www.w3.org/1999/xlink" x="0px" y="0px"
	 viewBox="0 0 379.1 98.8" style="enable-background:new 0 0 379.1 98.8;" xml:space="preserve">
<style type="text/css">
	.st0{fill:#253E8B;}
	.st1{fill:#00AEEF;}
	.st2{fill:#FFFFFF;}
</style>
<title>mp-logo</title>
<path class="st0" d="M138.8,45.4c0-25-31.1-45.4-69.4-45.4S0,20.4,0,45.4c0,0.7,0,2.4,0,2.7c0,26.5,27.2,48,69.4,48
	c42.5,0,69.4-21.5,69.4-48V45.4"/>
<path class="st1" d="M136.2,45.4c0,23.6-29.9,42.7-66.7,42.7S2.7,69,2.7,45.4S32.6,2.7,69.4,2.7S136.2,21.8,136.2,45.4"/>
<path class="st2" d="M47.3,31.9c0,0.1-0.7,0.8-0.3,1.3c1.1,1.3,4.3,2.1,7.6,1.4c2-0.4,4.5-2.4,6.9-4.4c2.6-2.1,5.2-4.2,7.9-5
	c1.8-0.7,3.9-0.7,5.8-0.1c1.9,0.7,3.7,1.7,5.2,3c4.6,3.4,22.9,19.5,26.1,22.2c9.5-4.1,19.3-7.3,29.3-9.5
	c-1.3-8.2-6.4-15.8-13.9-21.9c-10.6,4.4-23.5,6.8-36.2,0.6c-0.1,0-6.9-3.3-13.7-3.1c-10.1,0.2-14.4,4.5-19,9.1L47.3,31.9"/>
<path class="st2" d="M105.7,52.1c-0.2-0.2-21.6-18.9-26.4-22.5c-2.8-2.1-4.4-2.6-6-2.8c-1-0.1-1.9,0-2.8,0.3
	c-2.3,0.6-5.2,2.6-7.8,4.7s-5.3,4.2-7.6,4.7c-2.9,0.6-5.8,0.1-8.4-1.3c-0.6-0.4-1.1-0.9-1.4-1.5c-0.4-1-0.1-2.1,0.7-2.8l5.9-6.4
	l2.1-2c-1.8,0.3-3.6,0.7-5.4,1.2c-2,0.7-4.1,1.1-6.3,1.2c-2.1-0.2-4.3-0.6-6.4-1c-5.8-1.5-11.5-3.6-17-6.1
	C10.5,24,4.9,31.9,3.3,40.4c1.2,0.3,3.2,0.9,4,1.1c19,4.2,24.9,8.6,26,9.5c2.3-2.6,6.3-2.8,8.9-0.5c0.4,0.3,0.7,0.7,1,1.1
	c1.3-1,2.9-1.6,4.5-1.6c0.9,0,1.8,0.2,2.7,0.5c1.7,0.6,3,1.8,3.7,3.4c0.8-0.4,1.7-0.6,2.6-0.6c1.1,0,2.2,0.2,3.2,0.7
	c3.5,1.5,4,4.9,3.7,7.5c0.2,0,0.5,0,0.8,0c4.2,0,7.5,3.4,7.5,7.5c0,1.2-0.3,2.5-0.9,3.6c1.1,0.6,4,2.1,6.5,1.8
	c2-0.2,2.8-0.9,3.1-1.3s0.4-0.6,0.2-0.8l-5.4-6c0,0-0.9-0.8-0.6-1.2s0.8,0.2,1.2,0.5c2.7,2.3,6.1,5.7,6.1,5.7s0.3,0.5,1.5,0.7
	c1.5,0.3,3-0.1,4.2-1c0.3-0.3,0.7-0.6,0.9-1c0,0,0,0-0.1,0c0.8-1.1,0.7-2.5-0.2-3.5l-6.3-7c0,0-0.9-0.8-0.6-1.2s0.8,0.1,1.2,0.5
	c2,1.7,4.8,4.5,7.5,7.1c0.5,0.4,2.9,1.8,6-0.2c1.4-0.8,2.3-2.3,2.2-3.9c-0.2-1-0.6-1.8-1.3-2.5l-8.5-8.6c0,0-0.9-0.8-0.6-1.2
	s0.8,0.2,1.2,0.5c2.7,2.3,10.1,9,10.1,9c1.8,1.1,4.1,1.1,5.8-0.1c1.1-0.6,1.8-1.8,1.9-3.1C107.2,54.2,106.7,53,105.7,52.1"/>
<path class="st2" d="M64.3,63c-1.3,0-2.8,0.8-3,0.7s0.1-0.6,0.2-0.9s1.9-5.5-2.4-7.4c-3.2-1.4-5.2,0.2-5.9,0.9
	c-0.2,0.2-0.3,0.2-0.3-0.1c-0.1-2-1.4-3.8-3.3-4.4C46.9,51,44,52,42.4,54.4c-0.4-2.5-2.7-4.3-5.2-3.9c-2.5,0.4-4.3,2.7-3.9,5.2
	c0.4,2.5,2.7,4.3,5.2,3.9c1-0.1,1.8-0.6,2.5-1.2c0,0.1,0,0.1,0,0.2c-0.6,3,1,5.9,3.8,7c1.5,0.6,3.2,0.3,4.5-0.7
	c0.4-0.3,0.4-0.2,0.4,0.2c-0.2,1.1,0,3.4,3.3,4.7c1.6,0.8,3.6,0.4,4.9-0.9c0.4-0.4,0.5-0.3,0.5,0.3c0.1,3.2,2.9,5.7,6.1,5.6
	s5.7-2.9,5.6-6.1C70,65.5,67.4,63,64.3,63"/>
<path class="st0" d="M64.3,74.3c-2.9,0-5.3-2.3-5.4-5.2c0-0.2,0-0.9-0.6-0.9c-0.3,0-0.5,0.2-0.7,0.3c-0.7,0.7-1.6,1.2-2.6,1.2
	c-0.6,0-1.2-0.1-1.8-0.4c-3.1-1.2-3.2-3.4-3-4.2c0.1-0.2,0-0.5-0.1-0.7L50,64.3h-0.2c-0.2,0-0.4,0.1-0.5,0.2
	c-0.8,0.6-1.7,0.9-2.6,0.9c-0.5,0-1.1-0.1-1.6-0.3c-2.7-1-4.2-3.8-3.5-6.6c0-0.2,0-0.4-0.2-0.5L41,57.8L40.7,58
	c-1.7,1.6-4.4,1.6-6-0.1c-1.6-1.7-1.6-4.4,0.1-6c1.7-1.6,4.4-1.6,6,0.1c0.6,0.7,1,1.5,1.1,2.4l0.1,1.1l0.6-1c1.1-1.6,3-2.6,4.9-2.7
	c0.6,0,1.2,0.1,1.8,0.3c1.8,0.6,3,2.2,3,4c0,0.5,0.4,0.6,0.5,0.6c0.2,0,0.4-0.1,0.5-0.3c0.8-0.8,1.9-1.3,3.1-1.3
	c0.8,0,1.6,0.2,2.3,0.5c4,1.7,2.2,6.8,2.2,6.8c-0.3,0.8-0.4,1.2,0,1.4l0.2,0.1h0.1c0.3,0,0.5-0.1,0.8-0.2c0.7-0.3,1.4-0.4,2.1-0.5
	l0,0c3,0,5.4,2.5,5.4,5.4C69.8,71.8,67.3,74.3,64.3,74.3L64.3,74.3z M106.6,49.8c-6.6-5.7-21.8-19-25.9-22.1
	c-1.6-1.3-3.4-2.4-5.4-3.1c-0.9-0.3-1.7-0.4-2.6-0.4c-1.1,0-2.3,0.2-3.3,0.6c-2.7,0.9-5.3,3-7.9,5l-0.1,0.1
	c-2.4,1.9-4.9,3.9-6.7,4.3c-0.8,0.2-1.7,0.3-2.5,0.3c-2.1,0-4-0.6-4.7-1.5c-0.1-0.2,0-0.4,0.2-0.7l0,0l5.8-6.2
	c4.5-4.5,8.8-8.8,18.7-9h0.5c4.5,0.2,8.9,1.2,13,3.1c5.5,2.7,11.5,4.2,17.7,4.2c6.7-0.1,13.4-1.7,19.4-4.6c-0.8-0.6-1.5-1.2-2.3-1.9
	c-5.3,2.4-11.1,3.8-17,3.9c-5.7,0-11.4-1.4-16.5-4c-4.4-2-9.2-3.2-14.1-3.3H72c-8.3,0.2-13,3.1-16.1,5.7c-2.7,0.1-5.4,0.6-8,1.5
	c-1.8,0.6-3.7,1-5.7,1.1c-0.7,0-2-0.1-2.2-0.1c-2-0.1-12.2-2.6-20.4-5.6c-0.8,0.6-1.6,1.2-2.4,1.8c8.5,3.5,18.8,6.2,22.1,6.4
	c0.9,0.1,1.9,0.2,2.8,0.2c2.2-0.1,4.3-0.5,6.4-1.2c1.2-0.3,2.6-0.7,4-1l-1.1,1.1l-5.9,6.4c-0.9,0.8-1.2,2.1-0.8,3.2
	c0.3,0.7,0.9,1.3,1.6,1.7c1.9,1.1,4.1,1.6,6.2,1.6c0.8,0,1.7-0.1,2.5-0.3c2.5-0.6,5.1-2.6,7.8-4.8c2.2-1.7,5.3-3.9,7.7-4.6
	c0.7-0.2,1.4-0.3,2.1-0.3c0.2,0,0.4,0,0.6,0c1.6,0.2,3.1,0.7,5.8,2.8c4.8,3.6,26.2,22.3,26.4,22.5c0.9,0.8,1.3,2,1.3,3.1
	c-0.1,1.1-0.7,2.2-1.7,2.7c-0.8,0.6-1.8,0.9-2.8,0.9c-0.9,0-1.7-0.2-2.5-0.7c-0.1-0.1-7.4-6.8-10.1-9c-0.3-0.4-0.8-0.6-1.3-0.7
	c-0.2,0-0.4,0.1-0.6,0.3c-0.4,0.5,0.1,1.2,0.6,1.7l8.6,8.6c0.6,0.6,1.1,1.4,1.2,2.3c0.1,1.5-0.7,2.8-2,3.5c-0.9,0.6-1.9,1-3,1
	c-0.9,0-1.7-0.3-2.4-0.7l-1.2-1.2c-2.2-2.2-4.6-4.5-6.2-5.9c-0.3-0.3-0.8-0.6-1.3-0.7c-0.2,0-0.4,0.1-0.5,0.2
	c-0.2,0.2-0.3,0.6,0.2,1.2c0.1,0.2,0.3,0.3,0.4,0.5l6.2,7c0.7,0.8,0.8,2.1,0.1,3L88.2,70c-0.2,0.2-0.4,0.4-0.6,0.6
	c-0.9,0.7-2,1-3.1,1c-0.3,0-0.6,0-0.8-0.1c-0.5,0-0.9-0.2-1.2-0.5l-0.1-0.1c-0.3-0.3-3.5-3.6-6.1-5.7c-0.3-0.4-0.8-0.6-1.3-0.7
	c-0.2,0-0.4,0.1-0.6,0.2c-0.5,0.6,0.3,1.4,0.6,1.7l5.3,5.9c0,0.1-0.1,0.3-0.2,0.4c-0.2,0.3-0.8,0.9-2.8,1.2c-0.2,0-0.5,0-0.7,0
	c-1.8-0.1-3.6-0.6-5.2-1.6c1.9-4,0.2-8.7-3.8-10.6c-1.1-0.5-2.2-0.8-3.4-0.8H64c0.1-2-0.1-5.8-4-7.5c-1-0.5-2.2-0.7-3.3-0.7
	c-0.8,0-1.7,0.1-2.4,0.4c-0.8-1.6-2.2-2.8-3.9-3.3c-0.9-0.3-1.9-0.5-2.8-0.5c-1.6,0-3.2,0.5-4.5,1.4c-2.3-2.9-6.5-3.4-9.4-1.1
	c-0.2,0.2-0.4,0.3-0.6,0.5c-1.7-1.3-8.2-5.4-25.8-9.4c-0.8-0.2-2.8-0.8-4-1.1c-0.2,1-0.4,1.9-0.5,2.9l3.9,0.9
	c18,4,23.9,8.1,24.9,8.9c-0.3,0.8-0.5,1.7-0.5,2.6c0,3.7,3,6.7,6.7,6.8c0.4,0,0.8,0,1.2-0.1c0.5,2.7,2.5,4.9,5.1,5.9
	c0.8,0.3,1.6,0.5,2.4,0.5c0.5,0,1-0.1,1.5-0.2c1.3,2.7,3.9,4.4,6.8,4.4c0.7,0,1.4-0.1,2.1-0.4c1.7,4,6.3,6,10.4,4.3
	c1-0.4,1.9-1,2.6-1.8c2,1.2,4.4,1.9,6.7,2c0.3,0,0.7,0,1-0.1c2.7-0.3,4-1.4,4.6-2.2c0.1-0.1,0.2-0.3,0.3-0.4
	c0.7,0.2,1.4,0.3,2.2,0.3c1.6,0,3.1-0.6,4.3-1.6c1.3-0.9,2.2-2.2,2.6-3.7l0,0c0.5,0.1,1,0.1,1.5,0.2c1.6,0,3.1-0.5,4.5-1.4
	c2-1.2,3.3-3.4,3.2-5.7c0.5,0.1,1,0.2,1.5,0.2c1.5,0,2.9-0.5,4.2-1.3c1.7-1,2.8-2.8,2.9-4.7c0.1-1.3-0.2-2.7-0.9-3.8
	c9-3.7,18.3-6.6,27.7-8.7c-0.1-1-0.2-1.9-0.4-2.9C125.7,42.6,115.9,45.8,106.6,49.8"/>
<path class="st0" d="M369.2,34.5c-2.5,2.9-6.8,3.2-9.7,0.8c-0.3-0.2-0.5-0.5-0.8-0.8c-1.2-1.6-1.8-3.9-1.8-6.9s0.6-5.3,1.8-6.9
	c2.5-2.9,6.9-3.2,9.7-0.7c0.3,0.2,0.5,0.5,0.7,0.7c1.3,2,2,4.4,1.8,6.9C371.1,30,370.5,32.4,369.2,34.5z M375.4,16.5
	c-2.5-3.1-6.3-4.7-11.4-4.7s-8.9,1.6-11.4,4.7c-2.5,3.2-3.8,7.1-3.8,11.1c-0.1,4.1,1.2,8,3.8,11.2c2.5,3.1,6.3,4.6,11.4,4.6
	s8.9-1.5,11.4-4.6c2.5-3.2,3.9-7.1,3.8-11.2C379.2,23.6,377.9,19.6,375.4,16.5"/>
<path class="st0" d="M307.4,30.8c0,2.6-0.8,4.4-2.2,5.4c-1.4,1-3,1.5-4.7,1.5c-1,0-1.9-0.3-2.7-0.9c-0.8-0.7-1.2-1.8-1.1-2.9
	c-0.1-1.4,0.6-2.6,1.8-3.3c1.1-0.5,2.3-0.9,3.6-1.1l1.8-0.3c0.7-0.1,1.4-0.3,2.1-0.5c0.5-0.2,1-0.4,1.5-0.8L307.4,30.8z M311.3,13.8
	c-2.7-1.3-5.7-2-8.7-1.9c-5,0-8.6,1.3-10.6,3.9c-1.4,1.9-2.1,4.1-2.2,6.4h7.5c0.1-1,0.5-1.9,1.1-2.7c0.8-0.9,2.1-1.4,4-1.4
	c1.3-0.1,2.6,0.2,3.8,0.7c0.9,0.5,1.4,1.5,1.3,2.5c0,1-0.7,1.9-1.7,2.2c-1,0.4-2.1,0.6-3.1,0.7l-2.7,0.3c-2.4,0.2-4.7,0.8-6.9,1.9
	c-2.8,1.6-4.3,4.3-4.3,8c-0.2,2.5,0.8,4.9,2.6,6.5c1.9,1.5,4.3,2.3,6.7,2.3c17,0.8,16.8-9,17-11v-11
	C315.2,17.6,313.9,15.2,311.3,13.8"/>
<path class="st0" d="M272.6,18.6c1.6-0.1,3.2,0.5,4.3,1.8c0.6,0.9,1,1.9,1.2,3h8.4c-0.5-4.2-2-7.2-4.5-8.9c-2.9-1.8-6.2-2.6-9.6-2.5
	c-4.6,0-8.2,1.4-10.9,4.2s-3.9,6.8-3.9,11.9c0,4.5,1.2,8.2,3.6,11s6.1,4.2,11.1,4.2c5.1,0,8.9-1.7,11.4-5.1c1.5-1.9,2.5-4.3,2.7-6.7
	H278c-0.1,1.4-0.6,2.7-1.5,3.8c-0.8,1-2.2,1.5-4.1,1.5c-2.5,0.2-4.7-1.4-5.5-3.7c-0.6-1.7-0.9-3.5-0.8-5.2c-0.1-1.9,0.2-3.7,0.8-5.5
	C267.7,20,270,18.4,272.6,18.6"/>
<path class="st0" d="M255.3,12c-17.2,0-16.2,15.2-16.2,15.2v15.5h7.8V28.2c-0.1-1.8,0.2-3.6,0.9-5.3c1.1-2,3.2-3,6.3-3h0.9
	c0.4,0,0.8,0,1.3,0.1v-7.9c-0.4,0-0.6,0-0.7-0.1L255.3,12"/>
<path class="st0" d="M216.1,20.1c1.2-1.2,2.9-1.8,4.6-1.7c1.7-0.1,3.3,0.5,4.6,1.6c1.3,1.2,2,2.9,2.1,4.7H214
	C214.2,23,214.9,21.4,216.1,20.1z M226.6,34.7c-0.3,0.4-0.7,0.8-1.1,1.2c-1.3,0.9-2.8,1.3-4.4,1.2c-1.5,0.1-2.9-0.3-4.2-1
	c-1.9-1.2-3-3.2-3.2-6.2h21.6c0.1-2,0-3.9-0.3-5.9c-0.3-2.2-1.1-4.3-2.4-6.1c-1.3-1.9-3-3.4-5.1-4.4c-2.2-0.9-4.6-1.4-7-1.4
	c-4-0.2-7.8,1.3-10.6,4.1c-2.7,2.8-4.1,6.7-4.1,11.9c0,5.5,1.5,9.5,4.5,11.9c3,2.4,6.7,3.7,10.5,3.6c4.8,0,8.5-1.4,11.2-4.3
	c1.3-1.2,2.2-2.8,2.7-4.5L226.6,34.7"/>
<path class="st0" d="M202.9,42.7h-7.1v-18c0-1.6-0.5-5.5-5.2-5.5c-2.9-0.1-5.3,2.2-5.4,5.1c0,0.2,0,0.3,0,0.5v18h-7.1v-18
	c0-1.6-0.5-5.5-5.2-5.5c-2.9-0.1-5.3,2.1-5.4,5c0,0.2,0,0.3,0,0.5v18h-7.1V24.9c0-7.4,4.9-13,12.6-13c3.4-0.1,6.7,1.5,8.9,4.1
	c2.2-2.7,5.4-4.2,8.9-4.1c7.8,0,12.4,5.4,12.4,13v17.8"/>
<path class="st0" d="M337.1,34.5c-1.1,1.6-3,2.6-5,2.5c-2,0.1-3.8-0.8-4.9-2.5c-1.2-2.1-1.7-4.4-1.6-6.8c-0.1-2.2,0.5-4.4,1.6-6.4
	c1.1-1.7,3-2.7,5-2.6c1.4,0,2.8,0.5,3.9,1.4c1.8,1.6,2.8,4.4,2.8,8C338.9,30.5,338.3,32.7,337.1,34.5z M346.5,2.6
	c0,0-7.9-0.8-7.9,5.5v8.4c-0.8-1.4-2-2.5-3.4-3.3c-1.5-0.8-3.1-1.2-4.8-1.2c-3.7-0.1-7.1,1.5-9.4,4.4s-3.5,7.1-3.5,12.2
	c-0.2,3.9,1.1,7.7,3.5,10.8c2.4,2.8,7,4,11.1,4c14.4,0,14.2-12.3,14.2-12.3L346.5,2.6"/>
<path class="st1" d="M230.4,71.2c0-3-0.6-5.2-1.7-6.8c-1.1-1.6-3-2.5-4.9-2.4c-1.9-0.1-3.7,0.8-4.8,2.4c-1.1,1.4-1.6,3.7-1.6,6.8
	c0,2.9,0.6,5,1.7,6.5c1.1,1.6,3,2.5,4.9,2.4c1.9,0.1,3.7-0.8,4.7-2.4C229.9,75.7,230.5,73.5,230.4,71.2 M217.2,92.3
	c0,1-0.4,2-1.1,2.7c-0.7,0.7-1.7,1.1-2.8,1.1h-3.9V69c0-5.3,1.8-8.6,4.7-10.8c1.9-1.5,4.8-2.9,10.2-2.9c3.6,0,7.9,1.4,10.2,4.2
	c2.6,3.2,3.7,6.7,3.7,11.3c0,4.8-1.1,8.6-3.4,11.6c-2.1,2.8-5.4,4.4-8.9,4.3c-1.7,0-3.4-0.3-5-1c-1.6-0.8-2.8-2-3.7-3.5V92.3"/>
<path class="st1" d="M277.2,71.2c0,5.2,1.5,8.1,4.5,8.7s5.2-0.1,6.6-2.1c0.8-1.2,1.3-2.5,1.5-3.9c0.3-1.7,0.3-3.5,0.1-5.3
	c-0.3-1.7-0.9-3.2-1.9-4.6c-1-1.3-2.6-2.1-4.3-2c-2.6,0-4.3,1-5.2,2.8C277.6,66.9,277.1,69.1,277.2,71.2 M290,84.3v-2
	c-1.2,2-3.2,3.5-5.5,4s-4.7,0.3-6.8-0.6c-2.4-1-4.4-2.8-5.8-5c-1.6-2.5-2.4-5.7-2.4-9.7c0-4.7,1.1-8.5,3.2-11.4s5.6-4.2,10.3-4.4
	s7.4,0.9,10,3c2.9,2.2,4.6,5.6,4.6,10.9V85c0,5.1-3.5,14.5-14.7,13.7c-6.9-0.5-10.7-3.3-12.9-9.7h8.2c1.4,2.2,3.9,3.4,6.5,2.9
	c1.3-0.3,2.5-1.1,3.4-2.2C289.4,88.1,290,86.2,290,84.3"/>
<path class="st1" d="M258.9,74.4c0,2.6-0.8,4.4-2.2,5.4c-1.4,1-3,1.5-4.7,1.5c-1,0-2-0.3-2.7-0.9c-0.8-0.7-1.2-1.8-1.1-2.9
	c-0.1-1.4,0.6-2.6,1.8-3.3c1.1-0.5,2.3-0.9,3.6-1.1l1.8-0.3c0.7-0.1,1.4-0.3,2.1-0.5c0.5-0.2,1-0.5,1.5-0.8v2.9H258.9z M262.8,57.4
	c-2.7-1.3-5.7-2-8.7-1.9c-5,0-8.6,1.3-10.7,3.9c-1.4,1.9-2.1,4.1-2.2,6.4h7.5c0.1-1,0.5-1.9,1.1-2.7c0.8-0.9,2.1-1.4,4-1.4
	c1.3-0.1,2.6,0.2,3.8,0.7c0.9,0.5,1.4,1.5,1.3,2.5c0,1-0.7,1.9-1.7,2.2c-1,0.4-2,0.6-3.1,0.7l-2.7,0.3c-2.4,0.2-4.7,0.9-6.9,1.9
	c-2.9,1.6-4.3,4.3-4.3,8c-0.1,2.5,0.8,4.9,2.6,6.5c1.9,1.5,4.3,2.3,6.7,2.3c17,0.8,16.8-9,17-11V64.7
	C266.7,61.1,265.4,58.7,262.8,57.4"/>
<path class="st1" d="M321.1,77.8c-2.5,2.9-6.8,3.2-9.7,0.8c-0.3-0.2-0.5-0.5-0.8-0.8c-1.2-1.6-1.8-3.9-1.8-6.9s0.6-5.3,1.8-6.9
	c2.5-2.9,6.9-3.2,9.7-0.7c0.3,0.2,0.5,0.5,0.7,0.7c1.2,1.6,1.8,3.9,1.8,6.9S322.3,76.2,321.1,77.8 M327.3,59.8
	c-2.5-3.1-6.3-4.7-11.4-4.7s-8.9,1.6-11.4,4.7c-2.5,3.2-3.9,7.1-3.8,11.2c-0.1,4.1,1.2,8,3.8,11.2c2.5,3.1,6.3,4.6,11.4,4.6
	s8.9-1.6,11.4-4.6c2.5-3.2,3.8-7.1,3.7-11.2C331.1,67,329.8,63,327.3,59.8"/>
</svg>
